<?xml version="1.0" standalone="no"?>
<!DOCTYPE svg PUBLIC "-//W3C//DTD SVG 20010904//EN"
 "http://www.w3.org/TR/2001/REC-SVG-20010904/DTD/svg10.dtd">
<svg version="1.0" xmlns="http://www.w3.org/2000/svg"
 width="700.000000pt" height="700.000000pt" viewBox="0 0 700.000000 700.000000"
 preserveAspectRatio="xMidYMid meet">
<metadata>
Created by potrace 1.14, written by Peter Selinger 2001-2017
</metadata>
<g transform="translate(0.000000,700.000000) scale(0.100000,-0.100000)"
fill="#000000" stroke="none">
<path d="M3283 6832 c-35 -3 -38 -8 -23 -32 5 -9 21 -14 38 -12 l29 3 3 -78
c3 -84 7 -160 9 -180 0 -7 12 -13 26 -13 l26 0 -3 137 -3 137 30 1 c23 0 31 5
33 22 3 20 -1 21 -65 20 -37 -1 -83 -3 -100 -5z"/>
<path d="M3479 6838 c-1 -2 -2 -74 -3 -160 l-1 -157 28 1 27 1 0 159 0 158
-25 0 c-14 0 -25 -1 -26 -2z"/>
<path d="M3660 6833 c-31 -12 -61 -48 -71 -86 -15 -57 -13 -141 5 -176 17 -33
62 -61 96 -61 79 0 118 81 112 227 -3 64 -84 118 -142 96z m79 -69 c24 -53 6
-185 -27 -203 -22 -11 -58 2 -71 27 -13 24 -7 140 9 174 20 43 69 44 89 2z"/>
<path d="M3179 6821 c-2 -7 -2 2 6 -106 4 -49 8 -101 10 -115 2 -14 4 -40 4
-58 1 -30 4 -33 28 -30 26 3 27 5 24 57 -1 29 -4 62 -6 72 -2 10 -6 53 -10 96
-3 42 -8 79 -11 82 -7 7 -44 9 -45 2z"/>
<path d="M3081 6811 c-12 -8 -12 -21 -2 -88 7 -43 15 -91 17 -108 4 -22 -13
-3 -62 73 -63 98 -68 103 -98 100 -17 -2 -30 -7 -30 -13 1 -5 5 -32 8 -60 8
-61 11 -81 26 -172 9 -57 15 -71 28 -68 20 3 21 40 3 154 -6 41 -9 76 -7 79 3
2 35 -44 73 -102 59 -93 71 -106 93 -104 18 2 24 8 23 23 -4 41 -14 110 -18
125 -2 8 -6 33 -9 56 -7 66 -18 114 -25 114 -3 0 -12 -4 -20 -9z"/>
<path d="M3866 6782 c-3 -20 -9 -55 -11 -77 -3 -22 -8 -51 -10 -65 -2 -14 -7
-51 -11 -82 -5 -53 -4 -58 14 -58 21 0 21 0 38 115 3 22 9 60 13 85 l7 45 23
-75 c51 -172 57 -185 79 -188 24 -4 29 5 36 63 3 22 10 74 16 115 19 132 19
128 -1 133 -19 5 -24 -4 -33 -58 -8 -50 -19 -129 -19 -143 -1 -28 -15 8 -41
103 -16 55 -32 104 -37 109 -4 5 -19 10 -33 12 -21 2 -25 -2 -30 -34z"/>
<path d="M2712 6746 c-41 -22 -56 -56 -55 -122 1 -108 66 -201 133 -190 14 2
28 5 33 5 4 1 16 10 28 22 16 16 23 18 35 8 8 -6 17 -9 21 -5 5 5 -8 84 -23
139 -6 20 -34 21 -81 4 -25 -9 -30 -15 -23 -27 5 -8 21 -15 36 -15 21 0 28 -5
29 -23 2 -32 -22 -62 -50 -62 -47 0 -83 68 -87 160 -1 33 4 47 20 61 26 20 57
15 76 -13 10 -14 20 -18 35 -13 27 8 26 18 -2 51 -26 30 -87 40 -125 20z"/>
<path d="M2478 6681 c-32 -7 -78 -45 -79 -66 -1 -8 -2 -25 -3 -37 -3 -36 20
-114 44 -153 37 -59 91 -76 149 -46 54 29 66 101 31 194 -31 83 -82 122 -142
108z m69 -79 c30 -46 48 -129 34 -164 -16 -42 -63 -39 -89 5 -42 69 -56 153
-30 184 19 23 60 11 85 -25z"/>
<path d="M4368 6558 c-83 -128 -90 -147 -51 -148 6 0 20 16 31 35 l21 34 44
-15 c43 -14 44 -16 42 -55 -2 -33 2 -42 19 -49 12 -4 23 -6 25 -4 2 2 6 61 8
131 2 71 5 142 7 160 5 32 -6 43 -43 43 -11 0 -48 -47 -103 -132z m96 40 c-1
-18 -2 -49 -3 -70 l-1 -36 -34 10 -34 11 25 46 c24 42 43 71 47 71 1 0 1 -15
0 -32z"/>
<path d="M2159 6642 c-75 -39 -95 -126 -50 -227 62 -141 138 -184 230 -129 35
21 55 62 53 111 -2 44 -5 47 -36 39 -22 -5 -25 -11 -23 -47 1 -45 -19 -69 -58
-69 -47 0 -113 104 -122 195 -5 47 -3 54 18 69 34 23 55 20 85 -13 25 -28 28
-29 50 -14 l24 15 -21 29 c-37 52 -96 68 -150 41z"/>
<path d="M4634 6628 c-4 -5 -30 -71 -60 -147 -46 -120 -51 -137 -36 -142 23
-9 24 -8 66 101 21 52 41 99 45 103 5 5 9 -20 10 -55 3 -164 16 -218 51 -218
6 0 106 250 112 280 2 8 -6 16 -17 18 -17 2 -25 -12 -55 -92 -39 -105 -46
-104 -49 9 -3 82 -7 120 -15 133 -9 15 -45 21 -52 10z"/>
<path d="M4105 6529 c-13 -20 -15 -63 -4 -70 9 -5 6 -15 -10 -37 -24 -35 -26
-42 -8 -42 35 0 103 136 71 146 -8 2 -21 6 -29 9 -8 2 -17 0 -20 -6z"/>
<path d="M4823 6391 l-68 -139 53 -26 c60 -30 91 -32 131 -11 88 45 130 185
75 246 -17 19 -100 69 -115 69 -4 0 -39 -63 -76 -139z m131 63 c31 -20 39 -55
25 -105 -25 -81 -99 -126 -146 -87 -9 7 1 35 38 109 27 54 52 99 54 99 3 0 16
-7 29 -16z"/>
<path d="M5272 6348 c-72 -35 -152 -162 -152 -239 0 -42 20 -77 54 -99 61 -37
108 -34 154 10 l24 23 -20 20 -20 20 -28 -22 c-34 -27 -58 -27 -85 0 -17 17
-20 28 -14 57 12 67 92 171 142 186 17 5 29 1 47 -18 24 -23 26 -38 11 -85 -4
-12 2 -21 20 -29 21 -10 26 -9 36 10 18 34 14 96 -8 126 -39 53 -103 69 -161
40z"/>
<path d="M1693 6310 c-33 -19 -50 -57 -44 -95 8 -52 60 -76 137 -62 40 7 58 6
69 -3 23 -19 18 -57 -10 -76 -22 -14 -27 -14 -54 -1 -27 14 -31 13 -46 -3 -16
-17 -15 -20 9 -36 77 -50 196 39 161 122 -23 55 -41 61 -179 51 -21 -1 -31 4
-37 20 -15 41 23 65 78 48 31 -10 44 22 18 41 -26 20 -65 17 -102 -6z"/>
<path d="M1528 6196 l-26 -23 43 -107 c24 -58 38 -103 32 -99 -7 3 -47 33 -89
65 -42 32 -81 58 -86 58 -5 0 -21 -9 -35 -20 l-26 -21 27 -37 c15 -21 58 -77
96 -125 55 -71 71 -85 82 -76 15 12 19 35 7 41 -7 3 -104 122 -137 168 -6 8 6
3 27 -13 20 -15 54 -39 75 -54 20 -16 39 -30 42 -33 17 -19 67 -46 78 -43 19
7 15 23 -33 139 -24 59 -43 109 -41 111 2 2 32 -34 67 -79 35 -45 69 -88 74
-95 8 -10 14 -9 29 2 18 14 16 19 -52 107 -39 51 -83 108 -99 125 l-28 33 -27
-24z"/>
<path d="M1985 6198 c-11 -6 -22 -12 -23 -14 -9 -7 33 -62 44 -57 8 3 14 -10
19 -36 6 -38 24 -57 26 -28 3 40 -5 95 -17 119 -16 31 -20 32 -49 16z"/>
<path d="M5484 6116 c-17 -8 -47 -33 -66 -57 -73 -90 -83 -141 -38 -193 61
-69 134 -50 213 57 56 75 54 151 -6 187 -37 23 -60 24 -103 6z m90 -52 c9 -8
16 -22 16 -30 0 -38 -77 -136 -121 -154 -26 -11 -32 -10 -50 6 -28 25 -19 63
28 124 53 68 95 86 127 54z"/>
<path d="M1238 5956 l-66 -62 41 -45 c22 -24 71 -76 108 -114 l67 -70 65 60
c59 55 75 85 44 85 -7 0 -32 -18 -57 -40 l-45 -40 -34 36 -33 35 37 35 c33 30
37 37 24 49 -12 13 -18 11 -46 -15 -18 -17 -36 -30 -41 -30 -4 0 -21 13 -36
29 l-27 29 45 43 c39 37 44 46 33 60 -11 15 -20 9 -79 -45z"/>
<path d="M5619 5877 c-91 -95 -105 -114 -95 -129 6 -10 13 -17 16 -17 3 1 39
38 80 84 41 46 78 83 82 84 3 0 -12 -55 -35 -124 -39 -117 -40 -126 -24 -142
15 -16 23 -10 126 98 80 84 106 117 99 127 -6 6 -14 12 -19 12 -4 0 -42 -35
-84 -77 l-75 -78 40 115 40 114 -22 23 -23 22 -106 -112z"/>
<path d="M4187 5904 c-1 -1 -61 -5 -134 -8 -72 -4 -141 -9 -153 -11 -12 -2
-48 -7 -79 -11 -76 -8 -276 -50 -382 -80 -242 -67 -524 -193 -713 -318 -283
-188 -535 -445 -677 -691 -131 -229 -189 -429 -194 -675 -4 -162 12 -264 61
-393 149 -395 542 -720 1163 -962 173 -67 518 -175 641 -200 45 -9 256 -69
262 -74 4 -3 -13 -40 -38 -81 -224 -372 -666 -714 -1051 -814 -147 -38 -358
-43 -487 -10 -24 6 -25 8 -12 33 27 52 58 175 60 240 8 237 -151 475 -387 580
-111 50 -182 64 -307 64 -102 0 -125 -3 -203 -30 -175 -61 -285 -152 -355
-294 -86 -175 -81 -354 14 -528 72 -131 169 -227 285 -280 35 -16 118 -44 184
-62 66 -17 170 -45 230 -61 301 -81 457 -112 685 -133 122 -11 395 -6 520 11
25 3 60 7 78 10 77 10 102 14 197 34 55 12 107 23 115 25 584 146 1103 492
1404 937 104 155 195 362 225 518 6 30 14 66 17 80 11 45 14 314 4 355 -5 22
-12 56 -15 75 -9 52 -52 174 -81 233 -190 376 -626 693 -1254 911 -74 26 -166
56 -205 67 -38 11 -99 29 -135 39 -64 18 -345 94 -405 109 -16 4 -29 13 -28
19 2 6 21 42 44 79 171 279 471 550 784 707 191 95 368 137 555 131 63 -3 124
-6 135 -8 36 -7 85 -19 85 -21 0 -1 -9 -21 -20 -44 -33 -68 -53 -162 -52 -247
1 -214 152 -439 363 -542 73 -35 98 -45 154 -59 87 -22 230 -25 310 -6 178 41
319 137 407 277 68 109 97 293 64 411 -64 228 -216 397 -417 462 -88 29 -534
147 -644 171 -90 20 -118 24 -210 37 -27 3 -57 8 -65 9 -30 6 -339 22 -343 19z
m-1168 -1790 c53 -14 107 -29 121 -34 14 -4 52 -16 85 -25 33 -10 104 -35 158
-56 508 -201 759 -496 761 -894 1 -103 -8 -209 -20 -240 -4 -10 -12 -11 -27
-5 -12 5 -74 22 -139 39 -654 174 -1011 464 -1074 871 -10 67 -11 206 -2 275
5 33 10 68 11 78 2 22 11 22 126 -9z"/>
<path d="M1100 5822 c-24 -26 -52 -57 -63 -69 -17 -19 -18 -25 -7 -38 12 -14
16 -13 39 9 l27 26 34 -33 c160 -151 159 -150 175 -137 26 22 29 18 -98 137
-67 63 -80 86 -52 97 8 3 15 14 15 25 0 36 -27 30 -70 -17z"/>
<path d="M5880 5804 c-11 -13 -10 -19 9 -37 l22 -22 -97 -91 c-89 -84 -96 -92
-85 -113 12 -21 14 -21 83 41 151 135 141 129 158 98 12 -22 30 -26 47 -9 9 9
2 22 -27 53 -21 22 -50 53 -64 69 -29 32 -30 32 -46 11z"/>
<path d="M962 5663 c-85 -41 -68 -169 23 -175 11 -1 45 9 75 23 61 28 86 27
95 -2 14 -43 -28 -84 -73 -72 -14 3 -24 -2 -31 -15 -9 -17 -7 -21 17 -29 65
-23 136 36 136 111 1 29 -6 44 -27 62 -36 31 -74 30 -141 -3 -46 -22 -57 -24
-70 -14 -34 28 -1 86 44 79 16 -2 25 4 31 20 6 15 5 22 -4 23 -7 0 -19 2 -28
4 -9 1 -30 -4 -47 -12z"/>
<path d="M6004 5622 c-34 -29 -38 -33 -131 -106 -65 -50 -73 -65 -49 -85 10
-9 24 -2 63 29 48 37 51 39 66 22 15 -17 14 -22 -18 -75 -41 -67 -41 -69 -17
-90 17 -15 20 -13 52 48 32 61 37 65 66 63 70 -4 118 61 89 120 -20 43 -67
102 -80 102 -5 0 -24 -13 -41 -28z m86 -97 c0 -23 -40 -54 -63 -49 -12 2 -30
14 -39 26 -17 22 -16 24 20 55 l37 32 23 -25 c12 -14 22 -31 22 -39z"/>
<path d="M842 5523 c-8 -14 -2 -32 25 -81 32 -57 34 -64 15 -58 -11 4 -29 8
-39 10 -10 2 -30 7 -46 11 -17 5 -33 3 -42 -5 -31 -26 -15 -37 78 -55 75 -15
102 -25 147 -57 50 -36 56 -38 67 -22 19 26 18 27 -40 67 -42 29 -60 51 -92
112 -47 90 -59 103 -73 78z"/>
<path d="M6146 5409 c-88 -25 -177 -125 -162 -183 11 -45 59 -86 98 -86 85 0
197 90 206 165 4 38 1 46 -30 76 -35 35 -62 42 -112 28z m76 -51 c33 -27 30
-48 -14 -92 -87 -86 -178 -101 -178 -28 0 28 55 82 113 111 49 24 58 25 79 9z"/>
<path d="M618 5320 c-81 -63 -65 -184 26 -209 37 -10 75 4 136 48 50 36 68 38
98 11 20 -19 21 -23 9 -53 -15 -37 -52 -60 -84 -52 -16 4 -23 -1 -31 -24 -8
-22 -7 -31 1 -34 20 -7 80 1 105 15 29 15 72 86 72 120 0 66 -64 125 -126 115
-19 -3 -57 -22 -84 -42 -56 -41 -77 -47 -102 -31 -42 26 -8 96 46 96 18 0 29
7 35 23 5 12 7 25 4 30 -9 15 -81 7 -105 -13z"/>
<path d="M6227 5146 c-70 -40 -130 -76 -133 -79 -6 -6 62 -133 76 -142 4 -3
13 2 20 10 10 12 7 23 -13 59 -28 51 -30 48 53 93 145 79 166 97 137 121 -9 8
-46 -9 -140 -62z"/>
<path d="M6546 4953 c-16 -8 -90 -42 -165 -75 -75 -33 -140 -64 -145 -68 -5
-5 11 -53 38 -112 l46 -103 41 0 c40 0 43 -2 56 -40 13 -39 13 -40 -17 -65
-30 -25 -39 -53 -20 -65 5 -3 31 9 57 28 26 18 85 59 131 91 45 32 82 59 82
61 0 2 -5 15 -11 29 -10 22 -17 25 -53 21 -23 -2 -84 -7 -136 -10 l-95 -6 -22
59 c-13 33 -23 64 -23 69 0 6 42 29 93 51 213 92 199 84 192 112 -9 37 -17 40
-49 23z m24 -342 c0 -10 -99 -76 -105 -70 -5 6 -18 59 -14 60 2 0 24 3 49 6
25 3 47 7 49 9 8 7 21 4 21 -5z"/>
<path d="M6535 4439 c-76 -22 -141 -42 -143 -44 -2 -2 5 -35 17 -74 22 -74 46
-101 89 -101 34 0 82 31 82 52 0 19 15 24 25 8 8 -13 48 -13 79 2 23 10 39 35
41 63 1 21 -32 129 -41 131 -5 1 -72 -15 -149 -37z m140 -56 c5 -29 3 -40 -11
-50 -31 -23 -54 -15 -70 23 -17 41 -19 38 21 52 47 16 52 14 60 -25z m-123
-54 c1 -34 -26 -59 -56 -53 -26 5 -35 15 -45 52 -9 31 -9 31 37 45 53 15 63 9
64 -44z"/>
<path d="M6563 4194 c-87 -30 -119 -86 -90 -157 18 -43 50 -59 117 -60 106 0
189 48 195 114 4 45 -24 95 -62 110 -34 13 -112 9 -160 -7z m160 -49 c13 -5
17 -16 15 -39 -2 -25 -11 -35 -41 -50 -49 -23 -151 -33 -172 -16 -18 15 -20
64 -2 78 37 30 154 46 200 27z"/>
<path d="M230 3987 c-13 -7 -30 -24 -38 -37 -15 -29 -10 -93 9 -116 41 -50
171 -76 240 -48 56 23 80 84 53 135 -12 25 -12 29 0 29 7 0 16 6 19 14 4 10
-14 16 -74 23 -44 5 -82 6 -83 3 -2 -3 -7 -26 -10 -52 -7 -44 -6 -48 13 -48
12 0 22 5 22 10 1 6 2 16 3 22 2 23 35 20 61 -6 22 -22 24 -29 14 -48 -17 -33
-28 -38 -92 -38 -104 0 -166 44 -132 96 8 13 24 24 34 24 24 0 30 7 24 31 -6
22 -27 24 -63 6z"/>
<path d="M6687 3938 c-63 -8 -140 -16 -173 -17 -17 -1 -20 -6 -16 -30 2 -16 9
-28 16 -26 27 9 116 14 117 8 0 -5 2 -15 4 -24 2 -12 -16 -26 -61 -49 -44 -22
-64 -38 -64 -50 0 -11 4 -21 10 -25 10 -6 105 39 115 55 4 6 16 3 32 -10 38
-29 97 -27 130 6 24 24 25 30 19 97 -3 40 -5 73 -6 75 0 3 -51 0 -123 -10z
m93 -76 c0 -42 -21 -64 -55 -60 -21 2 -34 11 -42 30 -21 42 -8 58 48 58 47 0
49 -1 49 -28z"/>
<path d="M170 3715 c0 -23 3 -25 53 -26 115 -2 146 -4 151 -9 2 -3 -45 -26
-105 -50 -100 -41 -109 -47 -109 -71 0 -33 5 -35 115 -38 50 -2 113 -4 142 -6
39 -2 53 1 58 13 3 8 2 19 -2 23 -4 4 -57 10 -118 12 -60 3 -112 6 -115 7 -3
0 50 23 117 51 67 28 124 57 127 65 12 30 -19 39 -140 42 -65 2 -131 5 -146 8
-24 4 -28 1 -28 -21z"/>
<path d="M6518 3704 c-16 -15 7 -43 40 -51 35 -8 37 -11 40 -55 l3 -47 -40
-11 c-34 -9 -40 -14 -37 -33 5 -29 17 -27 183 25 131 41 133 42 131 70 -2 28
-18 37 -98 53 -8 2 -59 15 -114 29 -112 30 -101 28 -108 20z m230 -94 c33 3
25 -6 -18 -20 -79 -27 -90 -26 -90 8 0 16 2 31 6 34 3 3 26 -1 52 -8 26 -8 48
-14 50 -14z"/>
<path d="M6804 3492 c-5 -4 -10 -18 -10 -32 l0 -25 -137 0 -137 0 0 -26 c0
-24 3 -26 43 -27 23 0 84 -1 135 -2 l92 -3 0 -36 c0 -30 4 -37 20 -38 11 -1
20 1 21 5 0 4 3 49 5 100 5 92 -1 106 -32 84z"/>
<path d="M228 3462 c-65 -3 -68 -4 -66 -28 l2 -24 156 2 155 3 0 25 c0 25 -1
25 -90 25 -49 0 -120 -1 -157 -3z"/>
<path d="M398 3339 l-58 -29 -20 20 c-24 24 -70 26 -110 5 -32 -17 -43 -52
-36 -120 2 -22 4 -46 5 -54 1 -10 20 -12 99 -6 53 4 108 8 122 10 14 2 41 3
61 4 33 1 36 3 31 27 -4 25 -7 26 -68 22 -59 -3 -63 -2 -67 20 -4 22 3 28 59
53 54 25 64 33 64 54 0 32 -12 31 -82 -6z m-100 -52 c6 -7 14 -27 17 -45 6
-35 11 -32 -72 -36 -28 -1 -37 19 -28 61 7 30 63 44 83 20z"/>
<path d="M6563 3280 c-47 -21 -68 -63 -59 -113 10 -52 52 -84 126 -93 125 -17
184 11 196 93 4 33 1 45 -21 71 -45 54 -168 75 -242 42z m189 -60 c26 -12 41
-49 29 -69 -26 -41 -192 -34 -228 10 -14 19 -8 51 14 67 22 17 144 11 185 -8z"/>
<path d="M458 3145 c-3 -3 -2 -25 3 -48 13 -70 11 -83 -13 -84 -13 -1 -33 -5
-46 -8 -24 -6 -27 -2 -37 58 -4 28 -11 37 -26 37 -19 0 -20 -4 -14 -55 l7 -55
-31 -1 c-17 -1 -37 -2 -43 -3 -8 -1 -17 22 -23 59 -10 56 -14 62 -44 57 -6 -2
6 -103 17 -137 1 -3 2 -14 2 -26 0 -11 3 -18 8 -16 4 3 34 8 67 12 32 3 62 8
65 10 3 1 32 6 65 9 105 12 108 14 102 55 -4 20 -9 60 -13 89 -5 40 -11 52
-24 52 -9 0 -19 -2 -22 -5z"/>
<path d="M6489 3048 c-9 -28 -3 -49 15 -53 12 -2 35 -6 51 -10 17 -3 36 -6 43
-7 9 -1 11 -9 7 -27 -8 -32 -1 -28 -60 -35 -73 -10 -82 -14 -88 -41 -5 -29 -3
-29 78 -10 75 18 72 19 78 -5 5 -20 42 -40 85 -45 32 -3 70 30 81 73 16 60 24
118 16 110 -4 -4 -17 -3 -29 1 -12 5 -41 11 -66 15 -25 3 -80 13 -123 21 -84
16 -87 16 -88 13z m227 -93 c10 -2 22 -4 27 -4 11 -1 9 -26 -5 -56 -13 -29
-57 -35 -82 -9 -17 17 -19 27 -10 61 5 18 11 22 28 17 12 -3 31 -7 42 -9z"/>
<path d="M494 2935 c-3 -8 -1 -38 6 -65 7 -28 11 -52 9 -54 -10 -8 -90 -23
-93 -17 -2 3 -6 23 -10 43 -7 41 -17 51 -39 42 -13 -5 -13 -12 -2 -53 l12 -48
-43 -10 -44 -10 -10 36 c-5 20 -10 43 -10 51 0 25 -16 41 -33 34 -17 -6 -17
-12 -2 -74 3 -14 9 -43 14 -65 4 -22 12 -39 17 -39 5 1 65 14 134 28 69 15
134 29 146 31 l21 5 -20 90 c-14 59 -25 90 -34 90 -7 0 -16 -7 -19 -15z"/>
<path d="M6430 2756 c-4 -11 -6 -24 -4 -27 2 -3 30 -12 62 -19 49 -10 72 -23
136 -77 43 -36 79 -63 80 -62 10 11 16 49 9 49 -5 0 -18 8 -29 18 -10 9 -32
27 -47 39 -33 25 -29 29 43 37 60 7 64 10 75 45 7 21 5 23 -16 18 -98 -26
-170 -31 -235 -15 -65 15 -66 15 -74 -6z"/>
<path d="M515 2710 c-251 -75 -243 -72 -238 -91 7 -25 14 -24 124 11 52 16 95
30 97 30 1 0 -38 -37 -88 -82 -73 -65 -90 -86 -86 -102 3 -12 6 -25 6 -30 0
-10 24 -4 182 45 112 35 125 41 121 59 -3 11 -7 20 -8 20 -1 0 -54 -15 -116
-34 -62 -19 -115 -34 -116 -33 -1 2 23 25 55 52 130 114 144 129 135 151 -8
22 -8 22 -68 4z"/>
<path d="M498 2427 c-76 -29 -138 -56 -138 -62 0 -5 4 -16 9 -24 7 -11 19 -10
67 7 89 30 227 82 230 85 8 7 -10 47 -20 46 -6 0 -73 -24 -148 -52z"/>
<path d="M605 2363 c-33 -15 -62 -28 -64 -29 -2 -2 5 -23 15 -48 13 -31 25
-46 38 -46 15 0 17 5 12 34 -6 32 -5 34 25 38 57 9 84 -45 47 -90 -19 -22
-108 -62 -141 -62 -63 0 -89 48 -48 87 17 15 18 21 6 36 -19 26 -50 7 -65 -39
-24 -72 34 -142 114 -136 81 6 157 49 185 105 17 34 18 43 7 75 -8 23 -23 42
-41 51 -24 12 -26 15 -11 23 17 10 13 28 -7 27 -7 0 -39 -12 -72 -26z"/>
<path d="M690 2109 c-178 -95 -181 -97 -168 -118 10 -16 15 -17 32 -6 45 27
159 85 162 82 2 -2 -27 -44 -65 -93 -55 -72 -67 -93 -60 -110 10 -28 27 -38
42 -26 7 5 62 35 122 67 132 69 142 77 121 94 -13 11 -34 3 -123 -45 l-108
-58 26 35 c144 192 141 187 129 208 -6 12 -12 21 -13 21 -1 0 -45 -23 -97 -51z"/>
<path d="M877 1946 c-22 -17 -22 -20 12 -69 57 -84 57 -81 0 -117 -27 -18 -51
-31 -53 -29 -1 2 -15 25 -31 50 -26 43 -31 46 -52 36 -25 -11 -29 -22 -13 -32
12 -7 53 -85 48 -90 -7 -7 -79 -55 -82 -55 -2 0 -23 29 -46 65 -37 57 -44 63
-62 54 -11 -6 -17 -17 -14 -25 9 -23 107 -174 113 -174 8 0 271 172 299 195
l24 20 -60 89 c-33 49 -61 91 -63 92 -1 1 -10 -3 -20 -10z"/>
<path d="M1081 1646 c-12 -14 -11 -20 6 -39 11 -12 29 -33 41 -46 l22 -24 -38
-33 -37 -33 -35 40 c-32 36 -37 39 -49 25 -11 -13 -8 -21 18 -54 l31 -39 -32
-27 c-18 -14 -35 -26 -38 -26 -3 0 -21 20 -40 45 -33 45 -53 55 -65 35 -7 -11
15 -43 77 -114 l33 -38 25 24 c14 13 59 50 100 83 107 86 110 89 110 97 0 8
-20 32 -85 106 -28 31 -32 33 -44 18z"/>
<path d="M1192 1441 c-32 -16 -32 -18 -14 -34 15 -14 23 -15 49 -5 40 15 63
-2 63 -45 0 -24 -11 -41 -48 -77 -60 -58 -101 -75 -131 -54 -25 18 -26 29 -7
66 13 24 12 28 -4 43 -16 14 -19 14 -35 -11 -42 -65 1 -153 75 -155 52 -2 86
16 140 71 72 74 80 148 20 191 -36 26 -71 29 -108 10z"/>
<path d="M5710 1434 c-13 -15 19 -53 173 -205 15 -15 27 -29 27 -32 0 -3 -60
30 -132 74 -73 43 -138 79 -144 79 -6 0 -17 -7 -24 -15 -10 -12 -7 -23 13 -57
13 -24 46 -83 72 -133 26 -49 52 -97 57 -105 6 -8 -41 38 -104 102 l-116 117
-20 -22 -21 -22 134 -138 133 -139 33 31 33 32 -32 62 c-18 34 -48 90 -67 125
-19 34 -33 62 -30 62 2 0 58 -31 124 -69 l119 -69 33 34 33 34 -66 68 c-37 37
-95 97 -131 135 -35 37 -68 67 -74 67 -6 0 -16 -7 -23 -16z"/>
<path d="M1312 1189 c-69 -135 -72 -142 -56 -160 23 -26 34 -24 82 11 23 17
44 30 47 30 2 0 43 25 91 56 79 51 84 56 67 69 -15 12 -23 11 -51 -7 -35 -21
-35 -21 -85 23 -17 16 -17 18 -1 52 14 30 15 39 4 52 -7 8 -15 15 -19 15 -4 0
-39 -64 -79 -141z m97 -35 c10 -10 0 -21 -48 -54 l-62 -41 27 53 c39 76 45 83
59 66 6 -7 17 -18 24 -24z"/>
<path d="M5385 1139 c-27 -23 -59 -47 -70 -55 -18 -13 -18 -15 -3 -31 16 -15
20 -14 62 20 24 21 48 37 53 37 11 0 53 -55 53 -69 0 -6 -16 -22 -36 -37 -31
-24 -33 -29 -20 -42 13 -14 19 -12 50 11 19 15 38 27 43 27 4 0 18 -16 30 -34
l22 -34 -49 -38 c-41 -31 -47 -40 -37 -55 10 -16 17 -13 79 34 37 29 67 57 68
63 0 6 -24 41 -52 76 -80 99 -112 139 -121 154 -11 20 -16 18 -72 -27z"/>
<path d="M1623 1054 l-40 -48 -29 21 c-62 43 -115 33 -148 -30 -29 -53 -16
-85 61 -145 l41 -32 48 62 c27 35 56 71 65 81 9 10 30 37 47 61 30 42 31 44
13 60 -17 16 -20 14 -58 -30z m-95 -60 c28 -19 28 -28 -4 -70 -31 -40 -33 -40
-62 -14 -28 27 -28 45 3 75 28 29 33 30 63 9z"/>
<path d="M5213 1014 c-58 -30 -82 -94 -50 -137 10 -15 15 -16 30 -5 14 11 16
19 9 39 -13 32 8 62 42 62 34 0 52 -16 93 -81 57 -88 34 -153 -41 -117 -26 13
-40 15 -48 7 -17 -17 -1 -42 37 -58 30 -12 40 -12 68 -1 64 27 84 79 57 150
-41 107 -133 173 -197 141z"/>
<path d="M1720 1009 c-28 -10 -60 -56 -60 -84 0 -10 16 -43 35 -75 38 -63 38
-86 -3 -97 -29 -7 -52 16 -52 53 0 22 -24 39 -41 28 -5 -3 -9 -19 -9 -35 0
-33 46 -88 74 -90 9 -1 22 -2 29 -3 20 -3 66 23 77 43 17 33 11 65 -21 115
-32 52 -34 82 -6 100 13 8 24 7 45 -4 21 -13 27 -23 27 -50 0 -26 5 -36 20
-41 24 -6 35 7 35 42 0 34 -35 78 -76 95 -38 16 -40 16 -74 3z"/>
<path d="M5057 909 c-17 -10 -15 -15 17 -73 l35 -62 -42 -21 -43 -21 -32 59
c-35 63 -38 65 -63 46 -15 -11 -8 -26 58 -142 41 -72 78 -133 81 -137 4 -4 15
0 26 7 18 13 17 16 -13 70 l-31 55 37 23 c21 12 40 21 43 21 3 -1 17 -23 31
-50 31 -55 38 -60 61 -42 15 12 9 26 -60 146 -42 72 -79 132 -82 132 -3 0 -13
-5 -23 -11z"/>
<path d="M1935 880 c-57 -22 -125 -133 -125 -206 0 -31 6 -46 28 -67 33 -32
81 -43 113 -27 90 45 153 206 103 261 -35 39 -80 54 -119 39z m81 -69 c17 -33
-10 -102 -61 -158 -37 -40 -42 -42 -65 -30 -35 18 -37 58 -5 123 43 89 105
119 131 65z"/>
<path d="M4872 807 c-14 -6 -21 -16 -18 -26 19 -63 18 -65 -26 -84 l-43 -18
-25 30 c-21 25 -29 28 -49 20 -20 -8 -22 -11 -10 -27 15 -19 166 -199 184
-220 9 -10 17 -11 38 -1 31 14 30 9 17 80 -5 30 -12 72 -15 93 -3 21 -7 48
-10 60 -2 12 -7 39 -10 60 -3 22 -7 41 -8 42 -1 1 -12 -3 -25 -9z m12 -154 c3
-10 8 -40 12 -68 l7 -50 -42 51 c-22 29 -41 55 -41 58 0 6 37 24 52 25 4 1 9
-7 12 -16z"/>
<path d="M2128 728 c-3 -66 -5 -74 -28 -85 -38 -19 -60 -52 -60 -90 0 -42 30
-72 101 -101 l50 -21 14 32 c7 18 34 76 59 130 55 119 57 127 30 137 -19 7
-25 1 -49 -51 -31 -63 -36 -67 -58 -44 -11 10 -13 30 -10 76 4 52 2 65 -13 76
-10 7 -21 13 -25 13 -5 0 -9 -33 -11 -72z m66 -147 c5 -7 -32 -91 -40 -91 -11
0 -49 23 -56 34 -13 19 -9 45 12 66 16 16 24 18 50 9 16 -6 32 -14 34 -18z"/>
<path d="M2336 693 c-10 -25 -7 -31 17 -37 13 -3 39 -12 59 -21 l37 -15 -17
-42 c-9 -24 -16 -44 -17 -46 -1 -1 -21 5 -45 13 -56 20 -62 19 -58 -7 2 -15
14 -25 43 -33 42 -12 43 -17 23 -67 -12 -33 -10 -33 -78 -9 -51 18 -55 18 -61
3 -4 -10 0 -21 10 -26 32 -19 146 -55 153 -48 9 10 111 283 106 286 -1 2 -40
17 -85 33 -68 25 -83 28 -87 16z"/>
<path d="M4643 702 c-9 -6 -3 -32 23 -102 19 -52 40 -103 46 -114 11 -20 10
-20 -8 -6 -10 8 -55 50 -99 93 -76 74 -110 92 -120 65 -3 -7 19 -76 48 -154
49 -132 54 -141 74 -133 21 8 21 8 -17 109 -43 113 -44 113 63 7 61 -61 71
-68 98 -62 16 4 29 10 29 15 0 7 -73 202 -100 268 -10 23 -18 26 -37 14z"/>
<path d="M2529 573 c0 -32 -2 -122 -3 -199 l-3 -142 34 -10 c39 -12 21 -33
161 190 86 137 87 139 71 149 -26 16 -47 9 -59 -21 -20 -48 -33 -54 -90 -39
l-50 13 0 52 c0 38 -4 53 -16 58 -38 14 -44 7 -45 -51z m133 -130 c9 -5 -17
-56 -70 -138 -11 -17 -12 -8 -8 60 2 44 5 84 5 88 1 8 56 0 73 -10z"/>
<path d="M4394 612 c-14 -9 74 -302 91 -302 5 0 16 4 24 9 13 8 8 32 -30 153
-44 139 -56 160 -85 140z"/>
<path d="M4203 561 c-18 -11 -35 -31 -37 -43 -13 -57 -12 -63 13 -63 18 0 25
6 28 25 6 46 12 51 45 48 28 -3 36 -10 55 -48 31 -63 38 -125 18 -156 -21 -32
-58 -31 -82 2 -13 17 -24 23 -36 18 -9 -3 -17 -10 -17 -15 0 -24 36 -60 70
-70 69 -21 130 33 130 113 0 145 -98 244 -187 189z"/>
<path d="M4087 533 c-4 -3 -7 -21 -7 -40 0 -27 -5 -35 -26 -43 -48 -19 -69
-13 -84 24 -11 29 -18 35 -42 33 -15 -1 -26 -6 -24 -12 2 -5 32 -72 67 -147
51 -113 67 -138 83 -138 36 0 44 13 51 90 4 41 9 89 11 105 16 127 16 135 -4
135 -10 0 -22 -3 -25 -7z m-19 -193 c-1 -38 -6 -66 -9 -62 -4 4 -19 33 -32 64
l-25 57 26 4 c15 2 31 5 35 6 5 0 7 -30 5 -69z"/>
<path d="M3000 512 c-70 -10 -122 -96 -114 -190 5 -62 35 -98 96 -117 69 -20
98 -19 99 3 0 9 2 26 4 37 2 11 6 38 10 60 3 22 7 51 10 65 2 13 7 42 11 64 3
22 8 44 10 48 2 3 0 9 -5 12 -16 10 -95 22 -121 18z m63 -57 c0 -5 -4 -35 -8
-65 -4 -30 -9 -58 -10 -61 -2 -3 -5 -25 -6 -48 -3 -42 -4 -43 -34 -37 -50 10
-68 41 -62 108 5 57 15 79 47 106 17 15 76 12 73 -3z"/>
<path d="M3169 481 c-1 -9 -2 -27 -4 -41 -1 -14 -6 -74 -10 -135 -4 -60 -9
-113 -11 -116 -2 -4 7 -9 21 -11 22 -5 25 -2 26 26 1 17 3 49 4 71 10 139 9
138 54 10 40 -114 42 -117 77 -120 25 -2 29 1 30 24 0 14 4 71 8 126 13 168
14 160 -11 163 -21 3 -23 -1 -25 -55 0 -32 -2 -62 -3 -68 -2 -5 -3 -31 -4 -57
-1 -59 -14 -61 -30 -5 -7 23 -19 56 -26 72 -7 17 -21 51 -30 77 -13 34 -23 47
-41 51 -17 3 -24 0 -25 -12z"/>
<path d="M3807 494 c-1 -2 -22 -4 -45 -5 -36 -3 -42 -6 -42 -26 0 -22 3 -22
55 -17 30 4 55 2 56 -2 0 -5 2 -18 4 -29 2 -11 7 -49 11 -85 4 -36 8 -74 9
-85 1 -11 3 -30 4 -42 1 -18 6 -22 24 -19 20 3 22 9 21 57 -1 52 -13 184 -19
218 -2 9 -4 21 -4 28 -1 11 -64 16 -74 7z"/>
<path d="M3397 474 c-2 -2 9 -50 25 -107 16 -56 36 -126 44 -154 13 -49 17
-53 44 -53 17 0 30 3 30 8 1 4 20 73 44 154 23 82 41 150 38 153 -3 3 -13 5
-23 5 -13 0 -22 -12 -29 -40 -11 -40 -11 -40 -60 -40 l-48 0 -7 39 c-5 32 -10
39 -30 39 -13 0 -26 -2 -28 -4z m145 -127 c0 -4 -5 -36 -13 -70 l-13 -62 -12
40 c-6 22 -15 55 -18 73 -7 31 -7 32 23 29 17 -1 32 -6 33 -10z"/>
</g>
</svg>
