<svg width="192" height="192" xmlns="http://www.w3.org/2000/svg" xmlns:xlink="http://www.w3.org/1999/xlink" overflow="hidden"><defs><clipPath id="clip0"><path d="M0 0 192 0 192 192 0 192Z" fill-rule="evenodd" clip-rule="evenodd"/></clipPath></defs><g clip-path="url(#clip0)"><rect x="0" y="0" width="192" height="192" fill="#FFFFFF" fill-opacity="0"/><path d="M15.9656 47.1698C16.8678 45.6886 18.1775 45.1904 19.8947 45.6753L19.5573 47.2354C18.9825 47.0926 18.5048 47.0745 18.1243 47.1812 17.7438 47.2879 17.4235 47.5547 17.1633 47.9817 16.9222 48.3776 16.853 48.7547 16.9558 49.1131 17.0587 49.4716 17.2617 49.7432 17.5651 49.928 17.8997 50.1317 18.2401 50.1729 18.5863 50.0514 18.9325 49.9299 19.4643 49.5907 20.1817 49.0336 20.7941 48.5589 21.3086 48.2198 21.7253 48.0163 22.1421 47.8127 22.5925 47.7166 23.0765 47.7279 23.5606 47.7391 24.0384 47.8884 24.5099 48.1756 25.2749 48.6416 25.762 49.3088 25.971 50.177 26.18 51.0453 25.9878 51.9665 25.3944 52.9407 24.3703 54.6221 22.8867 55.1454 20.9436 54.5107L21.3843 52.9313C22.6488 53.3783 23.5832 53.1059 24.1874 52.1139 24.4827 51.6291 24.5813 51.1845 24.4831 50.7801 24.3848 50.3757 24.1511 50.061 23.7819 49.8361 23.5106 49.6709 23.2064 49.6045 22.8695 49.6371 22.5325 49.6697 22.0228 49.9508 21.3404 50.4804 20.6203 51.0419 20.0663 51.4256 19.6786 51.6316 19.2909 51.8376 18.8412 51.9402 18.3294 51.9394 17.8175 51.9387 17.3236 51.7934 16.8477 51.5035 16.1227 51.0618 15.667 50.4382 15.4808 49.6326 15.2946 48.827 15.4562 48.006 15.9656 47.1698Z" fill-rule="evenodd"/><text fill="#000000" fill-opacity="0" font-family="Arial,Arial_MSFontService,sans-serif" font-size="9.27565" x="15.406" y="53.6121">S</text><path d="M19.9951 44.8512 20.9063 43.5868 24.7698 44.4058 22.7846 40.9805 23.5876 39.8663 26.239 44.7425 29.2103 46.8839 28.3716 48.0478 25.4002 45.9063Z" fill-rule="evenodd"/><text fill="#000000" fill-opacity="0" font-family="Arial,Arial_MSFontService,sans-serif" font-size="8.18146" x="19.9951" y="47.0251">Y</text><path d="M25.4521 37.3759C26.3531 36.2924 27.465 36.0474 28.7876 36.641L28.3313 37.8549C27.8862 37.6719 27.5044 37.6007 27.1859 37.6412 26.8674 37.6818 26.5782 37.8583 26.3185 38.1706 26.0777 38.4602 25.9773 38.7551 26.0174 39.0554 26.0575 39.3557 26.1885 39.5981 26.4104 39.7827 26.6551 39.9862 26.9239 40.0597 27.2166 40.0031 27.5092 39.9466 27.977 39.737 28.6197 39.3744 29.1683 39.0655 29.6221 38.854 29.9812 38.7399 30.3404 38.6257 30.7138 38.6019 31.1015 38.6684 31.4893 38.735 31.8556 38.9116 32.2005 39.1984 32.7601 39.6638 33.0724 40.2579 33.1373 40.9806 33.2023 41.7034 32.9385 42.421 32.3459 43.1336 31.3231 44.3634 30.0685 44.608 28.5821 43.8672L29.1237 42.65C30.0871 43.1594 30.8704 43.0513 31.4738 42.3258 31.7688 41.9711 31.9007 41.6254 31.8698 41.2887 31.8388 40.952 31.6883 40.6714 31.4183 40.4468 31.2198 40.2817 30.9832 40.1923 30.7085 40.1785 30.4338 40.1647 29.9907 40.3301 29.3793 40.6748 28.7339 41.0406 28.2431 41.2833 27.907 41.4029 27.5709 41.5224 27.1972 41.5515 26.7859 41.4902 26.3746 41.4288 25.9949 41.2534 25.6468 40.9639 25.1164 40.5228 24.8242 39.9675 24.7701 39.2978 24.7161 38.6282 24.9434 37.9875 25.4521 37.3759Z" fill-rule="evenodd"/><text fill="#000000" fill-opacity="0" font-family="Arial,Arial_MSFontService,sans-serif" font-size="7.95906" x="24.7624" y="43.29">S</text><path d="M27.8293 34.8086 31.4787 30.9735 32.3616 31.8136 31.027 33.2161 36.4209 38.3489 35.432 39.3881 30.0381 34.2554 28.7122 35.6487Z" fill-rule="evenodd"/><text fill="#000000" fill-opacity="0" font-family="Arial,Arial_MSFontService,sans-serif" font-size="8.41465" x="27.8293" y="38.3363">T</text><path d="M32.1397 30.3459 35.7783 26.9695 36.5598 27.8117 33.9728 30.2123 35.6567 32.027 37.6854 30.1445 38.4712 30.9913 36.4425 32.8738 38.2862 34.8606 40.9151 32.4211 41.7139 33.2819 38.0334 36.6973Z" fill-rule="evenodd"/><text fill="#000000" fill-opacity="0" font-family="Arial,Arial_MSFontService,sans-serif" font-size="9.72775" x="32.1397" y="35.4813">E</text><path d="M36.7301 26.1087 38.4094 24.8023 43.609 28.671 41.1734 22.6522 42.7824 21.4006 48.1025 28.2395 47.0403 29.0658 42.4997 23.2289 45.4149 30.3302 44.5922 30.9701 38.4526 26.3691 42.997 32.211 42.0501 32.9477Z" fill-rule="evenodd"/><text fill="#000000" fill-opacity="0" font-family="Arial,Arial_MSFontService,sans-serif" font-size="11.5471" x="36.7301" y="31.5043">M</text><path d="M46.4374 18.8372C47.6233 18.076 48.7573 18.1779 49.8392 19.1428L49.038 20.1625C48.6689 19.8537 48.3263 19.6707 48.0104 19.6133 47.6945 19.5559 47.3656 19.6369 47.0237 19.8563 46.7067 20.0598 46.5221 20.3107 46.4697 20.6091 46.4174 20.9075 46.4691 21.1781 46.625 21.421 46.797 21.6889 47.031 21.84 47.3271 21.8744 47.6232 21.9087 48.1324 21.85 48.8546 21.6982 49.4708 21.5692 49.9673 21.5045 50.3441 21.504 50.7209 21.5035 51.0841 21.5934 51.4337 21.7738 51.7834 21.9542 52.0793 22.2331 52.3216 22.6106 52.7148 23.2232 52.8333 23.8838 52.6772 24.5924 52.5211 25.3011 52.0531 25.9057 51.2732 26.4063 49.927 27.2704 48.6571 27.1251 47.4634 25.9704L48.347 24.9733C49.1118 25.7496 49.8913 25.8828 50.6854 25.3731 51.0736 25.1239 51.3037 24.8342 51.3758 24.5038 51.4478 24.1734 51.389 23.8605 51.1993 23.5649 51.0598 23.3476 50.8612 23.191 50.6035 23.095 50.3457 22.9989 49.8734 23.023 49.1866 23.1672 48.4608 23.3213 47.9197 23.4046 47.5632 23.4172 47.2067 23.4298 46.8416 23.3448 46.468 23.1623 46.0943 22.9797 45.7852 22.6979 45.5406 22.3168 45.168 21.7363 45.057 21.1187 45.2074 20.464 45.3579 19.8092 45.7679 19.267 46.4374 18.8372Z" fill-rule="evenodd"/><text fill="#000000" fill-opacity="0" font-family="Arial,Arial_MSFontService,sans-serif" font-size="8.62735" x="45.1425" y="25.8826">S</text><path d="M53.7127 22.378 55.2663 21.5068 56.2064 23.1831 56.3413 25.8035 55.6667 26.1818 55.4141 23.7348 54.6986 24.1361Z" fill-rule="evenodd"/><text fill="#000000" fill-opacity="0" font-family="Arial,Arial_MSFontService,sans-serif" font-size="4.67503" x="53.7127" y="25.5974">,</text><path d="M59.3177 9.73529C61.1152 8.96334 62.6481 9.6257 63.9167 11.7224L62.5048 12.5923C61.7052 11.1785 60.8374 10.6726 59.9014 11.0746 58.6501 11.612 58.5783 13.1704 59.6861 15.7499 60.7178 18.1523 61.8594 19.0848 63.1107 18.5474 63.6121 18.3321 63.9072 17.9885 63.996 17.5168 64.0847 17.045 64.0336 16.442 63.8427 15.7078L65.4253 15.2747C66.0544 17.5836 65.4535 19.1312 63.6226 19.9175 62.4322 20.4287 61.3491 20.3526 60.3734 19.689 59.3976 19.0254 58.5809 17.9279 57.9232 16.3965 57.2141 14.7454 56.9788 13.3472 57.2173 12.2018 57.4558 11.0564 58.156 10.2342 59.3177 9.73529Z" fill-rule="evenodd"/><text fill="#000000" fill-opacity="0" font-family="Arial,Arial_MSFontService,sans-serif" font-size="10.8275" x="57.1273" y="18.8978">C</text><path d="M68.0255 9.89869C67.4583 10.0838 67.154 10.495 67.1127 11.1323 67.0715 11.7696 67.2099 12.5755 67.5279 13.5499 67.8407 14.5083 68.2011 15.2373 68.609 15.7369 69.0168 16.2365 69.5145 16.3904 70.1018 16.1987 70.6529 16.0188 70.9528 15.6146 71.0014 14.9861 71.05 14.3576 70.912 13.546 70.5873 12.5514 70.268 11.5729 69.903 10.8398 69.4923 10.3523 69.0817 9.86476 68.5928 9.71355 68.0255 9.89869ZM67.6732 8.77839C68.6267 8.4672 69.474 8.58793 70.2153 9.14058 70.9565 9.69323 71.5569 10.6736 72.0165 12.0816 72.4761 13.4896 72.5719 14.6357 72.3041 15.52 72.0363 16.4042 71.4236 17.0026 70.4662 17.3151 69.5047 17.6289 68.6513 17.5101 67.906 16.9588 67.1607 16.4074 66.5577 15.4257 66.0968 14.0137 65.6398 12.6137 65.547 11.47 65.8182 10.5824 66.0894 9.69486 66.7077 9.09352 67.6732 8.77839Z" fill-rule="evenodd"/><text fill="#000000" fill-opacity="0" font-family="Arial,Arial_MSFontService,sans-serif" font-size="8.87556" x="65.6667" y="16.3764">O</text><path d="M75.1528 6.68871C76.6665 6.32966 77.7746 6.97147 78.477 8.61411L77.2918 9.22796C76.9719 8.53838 76.6613 8.11625 76.3598 7.9616 76.0584 7.80694 75.7371 7.77007 75.396 7.85098 74.2659 8.11904 73.9542 9.32157 74.4611 11.4586 74.9709 13.6079 75.8042 14.5454 76.9608 14.2711 77.9206 14.0434 78.2261 13.1946 77.8775 11.7246L76.3704 12.0821 76.1053 10.9642 78.9217 10.2962 79.9618 14.6813 79.2172 14.858 78.7776 13.8336C78.5339 14.7091 77.9498 15.2564 77.0252 15.4757 76.0843 15.6989 75.2582 15.4915 74.547 14.8534 73.8358 14.2153 73.3249 13.2416 73.0143 11.9322 72.6871 10.5528 72.6903 9.39848 73.0238 8.46911 73.3573 7.53974 74.067 6.94627 75.1528 6.68871Z" fill-rule="evenodd"/><text fill="#000000" fill-opacity="0" font-family="Arial,Arial_MSFontService,sans-serif" font-size="8.97037" x="72.7712" y="14.4412">G</text><path d="M79.6299 5.8747 81.3006 5.62223 85.0509 11.3725 84.1176 5.19655 85.3038 5.01729 86.5985 13.5846 85.2742 13.7847 81.0742 7.40262 82.1108 14.2627 80.9246 14.442Z" fill-rule="evenodd"/><text fill="#000000" fill-opacity="0" font-family="Arial,Arial_MSFontService,sans-serif" font-size="9.4247" x="79.6299" y="13.2639">N</text><path d="M87.0748 4.87012 88.5035 4.73976 89.2909 13.3685 87.8622 13.4988Z" fill-rule="evenodd"/><text fill="#000000" fill-opacity="0" font-family="Arial,Arial_MSFontService,sans-serif" font-size="8.75907" x="87.0748" y="12.4039">I</text><path d="M89.2667 4.64492 94.5552 4.40492 94.6105 5.62242 92.6764 5.71019 93.0139 13.1483 91.5809 13.2134 91.2433 5.77522 89.3219 5.86242Z" fill-rule="evenodd"/><text fill="#000000" fill-opacity="0" font-family="Arial,Arial_MSFontService,sans-serif" font-size="8.80845" x="89.2667" y="12.1123">T</text><path d="M95.358 4.43207 96.7926 4.43225 96.7915 13.0968 95.3569 13.0966Z" fill-rule="evenodd"/><text fill="#000000" fill-opacity="0" font-family="Arial,Arial_MSFontService,sans-serif" font-size="8.66473" x="95.3569" y="12.0137">I</text><path d="M101.433 5.61102C100.838 5.57553 100.404 5.84671 100.132 6.42458 99.8602 7.00245 99.6938 7.80301 99.6328 8.82627 99.5728 9.83264 99.6411 10.643 99.8377 11.2572 100.034 11.8715 100.441 12.197 101.058 12.2337 101.636 12.2682 102.063 12.0019 102.339 11.4349 102.614 10.8678 102.783 10.0621 102.845 9.01771 102.907 7.99022 102.835 7.17443 102.632 6.57036 102.428 5.9663 102.029 5.64651 101.433 5.61102ZM101.516 4.43954C102.517 4.4992 103.261 4.9219 103.748 5.70765 104.236 6.4934 104.435 7.62552 104.347 9.10402 104.259 10.5825 103.929 11.6841 103.355 12.4088 102.782 13.1335 101.993 13.4659 100.988 13.4059 99.9782 13.3458 99.2276 12.9227 98.7361 12.1367 98.2445 11.3507 98.0429 10.2163 98.1312 8.73362 98.2188 7.26357 98.5514 6.16528 99.1288 5.43873 99.7063 4.71219 100.502 4.37913 101.516 4.43954Z" fill-rule="evenodd"/><text fill="#000000" fill-opacity="0" font-family="Arial,Arial_MSFontService,sans-serif" font-size="8.98023" x="98.1111" y="12.2903">O</text><path d="M106.193 4.96019 107.866 5.20085 109.796 11.789 110.685 5.60663 111.873 5.77751 110.639 14.3537 109.313 14.163 107.135 6.84002 106.146 13.7073 104.959 13.5364Z" fill-rule="evenodd"/><text fill="#000000" fill-opacity="0" font-family="Arial,Arial_MSFontService,sans-serif" font-size="9.39353" x="104.959" y="13.1795">N</text><path d="M112.554 12.7156 114.297 13.082 113.902 14.9628 112.279 17.0246 111.522 16.8655 112.942 14.8569 112.139 14.6881Z" fill-rule="evenodd"/><text fill="#000000" fill-opacity="0" font-family="Arial,Arial_MSFontService,sans-serif" font-size="4.309" x="111.522" y="16.486">,</text><path d="M122.529 9.84017 120.415 13.339 122.304 13.9238ZM122.309 8.31039 123.845 8.78584 123.505 17.7508 122.118 17.3213 122.24 15.0868 119.814 14.3355 118.657 16.2501 117.35 15.8456Z" fill-rule="evenodd"/><text fill="#000000" fill-opacity="0" font-family="Arial,Arial_MSFontService,sans-serif" font-size="9.44042" x="117.35" y="16.5708">A</text><path d="M127.18 9.88422 128.751 10.5074 129.095 17.3639 131.399 11.5582 132.514 12.0006 129.318 20.0543 128.074 19.5604 127.659 11.9315 125.1 18.3804 123.985 17.9379Z" fill-rule="evenodd"/><text fill="#000000" fill-opacity="0" font-family="Arial,Arial_MSFontService,sans-serif" font-size="10.1701" x="123.985" y="18.7831">N</text><path d="M135.015 14.4419 132.19 20.1477 132.726 20.413C133.475 20.7836 134.147 20.7939 134.741 20.4436 135.336 20.0934 135.847 19.4859 136.275 18.6213 137.218 16.7174 136.976 15.4127 135.551 14.7072ZM134.239 12.7758 135.988 13.6413C136.834 14.0604 137.437 14.5452 137.795 15.0957 138.154 15.6463 138.317 16.2817 138.284 17.0021 138.251 17.7225 138.056 18.4429 137.699 19.1635 137.324 19.922 136.873 20.5402 136.345 21.0182 135.818 21.4961 135.224 21.7982 134.564 21.9245 133.903 22.0509 133.129 21.8941 132.24 21.4543L130.395 20.5409Z" fill-rule="evenodd"/><text fill="#000000" fill-opacity="0" font-family="Arial,Arial_MSFontService,sans-serif" font-size="9.19105" x="130.395" y="20.8179">D</text><path d="M148.143 18.078C149.773 19.1588 150.059 20.8041 149 23.014L147.499 22.3094C148.243 20.866 148.191 19.8629 147.342 19.3 146.207 18.5476 144.864 19.3414 143.313 21.6813 141.868 23.8606 141.714 25.3264 142.849 26.0788 143.304 26.3803 143.753 26.439 144.196 26.2548 144.639 26.0706 145.116 25.6975 145.625 25.1356L146.855 26.2222C145.268 28.0135 143.644 28.3586 141.983 27.2577 140.903 26.5419 140.374 25.5941 140.394 24.4142 140.415 23.2344 140.885 21.9499 141.806 20.5607 142.799 19.063 143.84 18.1001 144.929 17.6721 146.018 17.2442 147.089 17.3794 148.143 18.078Z" fill-rule="evenodd"/><text fill="#000000" fill-opacity="0" font-family="Arial,Arial_MSFontService,sans-serif" font-size="10.4581" x="140.394" y="26.579">C</text><path d="M152.79 25.4692C152.325 25.0955 151.814 25.0655 151.258 25.3793 150.702 25.6932 150.103 26.2496 149.461 27.0487 148.829 27.8345 148.416 28.5348 148.221 29.1494 148.025 29.7641 148.168 30.2649 148.65 30.6519 149.102 31.0151 149.604 31.0452 150.157 30.7423 150.71 30.4393 151.314 29.8801 151.969 29.0645 152.614 28.2622 153.028 27.5558 153.212 26.9454 153.396 26.335 153.255 25.843 152.79 25.4692ZM153.536 24.5618C154.317 25.19 154.68 25.9655 154.622 26.8883 154.564 27.8111 154.072 28.8498 153.144 30.0044 152.216 31.1589 151.309 31.8658 150.422 32.1249 149.535 32.3841 148.699 32.1982 147.914 31.5673 147.126 30.9338 146.759 30.1543 146.813 29.2289 146.867 28.3034 147.36 27.2617 148.29 26.1039 149.212 24.9559 150.119 24.2529 151.011 23.9947 151.902 23.7366 152.744 23.9256 153.536 24.5618Z" fill-rule="evenodd"/><text fill="#000000" fill-opacity="0" font-family="Arial,Arial_MSFontService,sans-serif" font-size="8.35513" x="146.808" y="31.1937">O</text><path d="M157.056 27.7015 158.281 28.8661 156.04 35.3552 160.345 30.8296 161.214 31.6565 155.242 37.9344 154.272 37.0114 156.736 29.7794 151.954 34.8063 151.085 33.9795Z" fill-rule="evenodd"/><text fill="#000000" fill-opacity="0" font-family="Arial,Arial_MSFontService,sans-serif" font-size="10.2329" x="151.085" y="36.6553">N</text><path d="M161.758 32.2264 165.33 36.1335 164.43 36.9559 163.124 35.527 157.629 40.5512 156.661 39.4924 162.156 34.4683 160.858 33.0488Z" fill-rule="evenodd"/><text fill="#000000" fill-opacity="0" font-family="Arial,Arial_MSFontService,sans-serif" font-size="8.32476" x="156.661" y="39.5106">T</text><path d="M165.957 38.6573 163.749 40.4194 164.434 41.2777C164.74 41.6614 165.071 41.8588 165.427 41.8702 165.782 41.8815 166.13 41.7512 166.471 41.4793 167.179 40.9144 167.239 40.2631 166.65 39.5256ZM165.93 36.8432 167.558 38.8822C168.146 39.6198 168.414 40.2972 168.359 40.9144 168.305 41.5316 167.965 42.0897 167.34 42.5886 166.507 43.2538 165.641 43.3794 164.742 42.9653L162.706 46.6934 161.736 45.4773 163.723 42.1677 162.881 41.1124 160.053 43.3694 159.158 42.2481Z" fill-rule="evenodd"/><text fill="#000000" fill-opacity="0" font-family="Arial,Arial_MSFontService,sans-serif" font-size="9.85022" x="159.158" y="45.4621">R</text><path d="M171.055 45.3689C170.722 44.8742 170.243 44.6945 169.619 44.8296 168.995 44.9647 168.258 45.3189 167.408 45.8921 166.572 46.4558 165.97 47.0024 165.601 47.5317 165.233 48.0609 165.221 48.5817 165.567 49.0939 165.891 49.5746 166.362 49.752 166.98 49.6263 167.597 49.5006 168.34 49.1452 169.207 48.5602 170.061 47.9846 170.665 47.4325 171.022 46.9039 171.378 46.3752 171.389 45.8636 171.055 45.3689ZM172.036 44.7228C172.597 45.5542 172.713 46.4022 172.385 47.2666 172.057 48.1311 171.279 48.9774 170.051 49.8056 168.823 50.6338 167.747 51.0405 166.824 51.0255 165.9 51.0105 165.156 50.5856 164.593 49.7506 164.028 48.9121 163.908 48.0589 164.233 47.1909 164.559 46.323 165.338 45.4737 166.569 44.6431 167.79 43.8196 168.864 43.4165 169.792 43.4338 170.72 43.4511 171.468 43.8808 172.036 44.7228Z" fill-rule="evenodd"/><text fill="#000000" fill-opacity="0" font-family="Arial,Arial_MSFontService,sans-serif" font-size="7.5926" x="164.055" y="50.0768">O</text><path d="M174.442 48.7669 175.158 50.0103 168.699 53.7277 170.229 56.3849 169.178 56.9897 166.933 53.0891Z" fill-rule="evenodd"/><text fill="#000000" fill-opacity="0" font-family="Arial,Arial_MSFontService,sans-serif" font-size="8.22272" x="166.933" y="55.9618">L</text><path d="M180.479 55.7655 181.2 57.3772 172.827 61.1225 174.368 64.567 173.006 65.1763 170.744 60.1201Z" fill-rule="evenodd"/><text fill="#000000" fill-opacity="0" font-family="Arial,Arial_MSFontService,sans-serif" font-size="9.41081" x="170.744" y="64">L</text><path d="M180.778 65.3466 176.712 65.7695 177.385 67.6295ZM181.866 64.2495 182.413 65.7616 175.055 70.8944 174.561 69.5285 176.418 68.2794 175.555 65.8902 173.33 66.1216 172.865 64.8352Z" fill-rule="evenodd"/><text fill="#000000" fill-opacity="0" font-family="Arial,Arial_MSFontService,sans-serif" font-size="6.64499" x="172.865" y="70.0638">A</text><path d="M179.378 71.6741 176.668 72.4259 176.977 73.5391C177.26 74.5586 177.852 74.9433 178.753 74.6933 179.104 74.5959 179.388 74.4008 179.605 74.1077 179.822 73.8147 179.839 73.3358 179.655 72.6712ZM182.84 70.7137 180.448 71.3772 180.691 72.2519C180.862 72.8676 181.088 73.2419 181.368 73.3749 181.649 73.5078 181.969 73.5245 182.327 73.425 182.747 73.3084 183.017 73.1129 183.136 72.8383 183.255 72.5636 183.25 72.1918 183.12 71.7229ZM183.535 69.0649 184.236 71.5911C184.413 72.2272 184.496 72.7246 184.485 73.0832 184.475 73.4417 184.325 73.7841 184.036 74.1103 183.747 74.4366 183.349 74.6698 182.843 74.8101 181.918 75.0669 181.193 74.8221 180.67 74.0758 180.633 75.162 180.072 75.8555 178.988 76.1564 178.372 76.3273 177.78 76.2796 177.212 76.0133 176.644 75.7471 176.206 75.0574 175.897 73.9441L175.186 71.3813Z" fill-rule="evenodd"/><text fill="#000000" fill-opacity="0" font-family="Arial,Arial_MSFontService,sans-serif" font-size="7.19166" x="175.186" y="75.3576">B</text><path d="M184.951 79.1047C184.838 78.5187 184.468 78.1651 183.841 78.044 183.214 77.9229 182.398 77.9588 181.391 78.1518 180.401 78.3416 179.632 78.6074 179.085 78.9492 178.538 79.291 178.323 79.7653 178.439 80.3721 178.549 80.9415 178.912 81.2898 179.529 81.4171 180.147 81.5443 180.969 81.5095 181.997 81.3125 183.008 81.1188 183.781 80.8488 184.316 80.5028 184.851 80.1567 185.063 79.6907 184.951 79.1047ZM186.106 78.8961C186.295 79.8811 186.069 80.7065 185.427 81.3724 184.786 82.0383 183.738 82.5106 182.283 82.7894 180.828 83.0682 179.679 83.0192 178.836 82.6423 177.992 82.2654 177.476 81.5823 177.286 80.5932 177.096 79.5999 177.321 78.7682 177.961 78.0982 178.602 77.4281 179.652 76.9533 181.111 76.6737 182.557 76.3965 183.703 76.4482 184.55 76.8289 185.396 77.2095 185.915 77.8986 186.106 78.8961Z" fill-rule="evenodd"/><text fill="#000000" fill-opacity="0" font-family="Arial,Arial_MSFontService,sans-serif" font-size="6.46877" x="177.221" y="82.1587">O</text><path d="M185.805 85.1517 182.997 85.4569 183.116 86.5486C183.169 87.0366 183.343 87.3806 183.637 87.5807 183.931 87.7807 184.295 87.8572 184.728 87.8101 185.628 87.7122 186.027 87.1942 185.926 86.2561ZM186.755 83.6056 187.037 86.1992C187.139 87.1373 187.001 87.8525 186.625 88.3446 186.248 88.8367 185.663 89.126 184.868 89.2124 183.807 89.3276 183.009 88.9695 182.471 88.1383L178.755 90.1958 178.587 88.649 182.039 86.9193 181.893 85.5769 178.296 85.9678 178.141 84.5416Z" fill-rule="evenodd"/><text fill="#000000" fill-opacity="0" font-family="Arial,Arial_MSFontService,sans-serif" font-size="6.59023" x="178.141" y="89.372">R</text><path d="M186.124 93.1172 182.126 92.2672 182.193 94.2438ZM187.498 92.4086 187.552 94.0155 178.971 96.6324 178.922 95.1808 181.073 94.5645 180.988 92.0253 178.8 91.5603 178.754 90.1932Z" fill-rule="evenodd"/><text fill="#000000" fill-opacity="0" font-family="Arial,Arial_MSFontService,sans-serif" font-size="6.43921" x="178.754" y="95.8275">A</text><path d="M187.606 96.0764 187.449 101.368 186.231 101.332 186.288 99.3965 178.846 99.1748 178.888 97.7409 186.331 97.9626 186.388 96.0401Z" fill-rule="evenodd"/><text fill="#000000" fill-opacity="0" font-family="Arial,Arial_MSFontService,sans-serif" font-size="5.32788" x="178.846" y="100.702">T</text><path d="M186.098 105.045C186.157 104.451 185.904 104.007 185.337 103.712 184.771 103.417 183.978 103.218 182.958 103.116 181.955 103.016 181.142 103.051 180.52 103.223 179.899 103.395 179.557 103.788 179.496 104.402 179.438 104.979 179.687 105.417 180.242 105.715 180.798 106.013 181.596 106.214 182.637 106.318 183.661 106.421 184.479 106.383 185.091 106.204 185.703 106.025 186.038 105.638 186.098 105.045ZM187.265 105.174C187.165 106.172 186.713 106.899 185.908 107.354 185.103 107.809 183.964 107.963 182.49 107.816 181.016 107.668 179.929 107.293 179.228 106.691 178.527 106.09 178.227 105.288 178.327 104.285 178.428 103.279 178.881 102.546 179.686 102.087 180.491 101.627 181.633 101.472 183.111 101.62 184.576 101.766 185.66 102.143 186.363 102.749 187.065 103.355 187.366 104.164 187.265 105.174Z" fill-rule="evenodd"/><text fill="#000000" fill-opacity="0" font-family="Arial,Arial_MSFontService,sans-serif" font-size="6.30439" x="178.308" y="107.082">O</text><path d="M185.188 111.104 182.41 110.594 182.211 111.674C182.123 112.157 182.191 112.536 182.415 112.812 182.64 113.088 182.967 113.265 183.396 113.344 184.286 113.507 184.817 113.125 184.987 112.197ZM186.54 109.894 186.068 112.46C185.898 113.388 185.562 114.034 185.061 114.398 184.559 114.762 183.915 114.872 183.129 114.727 182.08 114.535 181.417 113.963 181.139 113.013L176.99 113.923 177.271 112.393 181.073 111.721 181.317 110.393 177.758 109.74 178.018 108.329Z" fill-rule="evenodd"/><text fill="#000000" fill-opacity="0" font-family="Arial,Arial_MSFontService,sans-serif" font-size="6.45992" x="176.99" y="113.981">R</text><path d="M185.458 115.718 185.071 117.227 181.175 117.875 184.274 120.339 183.933 121.67 179.685 118.098 176.137 117.189 176.493 115.799 180.041 116.708Z" fill-rule="evenodd"/><text fill="#000000" fill-opacity="0" font-family="Arial,Arial_MSFontService,sans-serif" font-size="5.95219" x="176.137" y="120.926">Y</text><path d="M164.725 159.675 162.849 161.502 155.962 157.478 159.761 164.509 157.963 166.259 150.524 158.618 151.711 157.462 158.06 163.984 153.526 155.694 154.446 154.8 162.582 159.591 156.228 153.064 157.286 152.034Z" fill-rule="evenodd"/><text fill="#000000" fill-opacity="0" font-family="Arial,Arial_MSFontService,sans-serif" font-size="14.2243" x="150.524" y="164.481">M</text><path d="M154.654 166.337 150.768 169.425 150.053 168.525 152.816 166.33 151.276 164.392 149.109 166.113 148.391 165.209 150.558 163.487 148.872 161.365 146.064 163.596 145.333 162.676 149.264 159.553Z" fill-rule="evenodd"/><text fill="#000000" fill-opacity="0" font-family="Arial,Arial_MSFontService,sans-serif" font-size="9.87189" x="145.333" y="168.191">E</text><path d="M147.46 171.913C146.147 172.808 144.821 172.518 143.484 171.044L144.474 170.13C145.332 171.133 146.103 171.402 146.786 170.936 147.701 170.313 147.516 169.059 146.231 167.174 145.035 165.418 143.98 164.852 143.065 165.475 142.699 165.725 142.517 166.045 142.519 166.435 142.522 166.825 142.657 167.298 142.923 167.854L141.728 168.445C140.867 166.702 141.106 165.374 142.444 164.462 143.314 163.87 144.189 163.762 145.071 164.139 145.952 164.517 146.774 165.265 147.537 166.384 148.359 167.591 148.764 168.669 148.752 169.62 148.74 170.57 148.309 171.335 147.46 171.913Z" fill-rule="evenodd"/><text fill="#000000" fill-opacity="0" font-family="Arial,Arial_MSFontService,sans-serif" font-size="8.50116" x="141.223" y="171.358">C</text><path d="M143.729 174.168 142.483 174.879 140.703 171.758 138.487 173.022 140.267 176.143 139.021 176.854 134.727 169.328 135.973 168.617 137.886 171.969 140.102 170.705 138.19 167.353 139.436 166.642Z" fill-rule="evenodd"/><text fill="#000000" fill-opacity="0" font-family="Arial,Arial_MSFontService,sans-serif" font-size="10.2122" x="134.727" y="175.577">H</text><path d="M134.596 177.468 133.79 173.461 132.002 174.306ZM135.792 178.447 134.338 179.135 128.531 172.296 129.844 171.676 131.263 173.406 133.56 172.32 133.119 170.127 134.355 169.542Z" fill-rule="evenodd"/><text fill="#000000" fill-opacity="0" font-family="Arial,Arial_MSFontService,sans-serif" font-size="9.59271" x="128.531" y="177.936">A</text><path d="M131.189 180.557 129.61 181.159 124.724 176.337 126.948 182.174 125.827 182.601 122.742 174.504 123.993 174.027 129.453 179.371 126.983 172.888 128.104 172.461Z" fill-rule="evenodd"/><text fill="#000000" fill-opacity="0" font-family="Arial,Arial_MSFontService,sans-serif" font-size="10.14" x="122.742" y="181.333">N</text><path d="M124.132 183.121 122.763 183.552 120.156 175.289 121.525 174.858Z" fill-rule="evenodd"/><text fill="#000000" fill-opacity="0" font-family="Arial,Arial_MSFontService,sans-serif" font-size="8.69469" x="120.156" y="182.465">I</text><path d="M118.223 184.978C116.682 185.369 115.536 184.643 114.784 182.799L116.028 182.28C116.49 183.516 117.122 184.033 117.924 183.829 118.997 183.557 119.252 182.315 118.691 180.104 118.168 178.045 117.371 177.152 116.298 177.424 115.869 177.533 115.588 177.772 115.457 178.139 115.326 178.506 115.29 178.997 115.35 179.61L114.025 179.757C113.814 177.824 114.492 176.658 116.062 176.26 117.082 176.001 117.941 176.199 118.64 176.856 119.339 177.512 119.855 178.497 120.188 179.809 120.547 181.224 120.559 182.376 120.222 183.265 119.885 184.154 119.218 184.725 118.223 184.978Z" fill-rule="evenodd"/><text fill="#000000" fill-opacity="0" font-family="Arial,Arial_MSFontService,sans-serif" font-size="8.93082" x="113.987" y="183.964">C</text><path d="M111.434 184.83 111.724 180.753 109.775 181.092ZM112.326 186.093 110.742 186.368 106.964 178.231 108.395 177.982 109.303 180.028 111.806 179.592 111.964 177.361 113.311 177.126Z" fill-rule="evenodd"/><text fill="#000000" fill-opacity="0" font-family="Arial,Arial_MSFontService,sans-serif" font-size="9.24225" x="106.964" y="185.213">A</text><path d="M107.331 186.875 105.904 187.026 105.118 179.615 102.07 179.939 101.942 178.733 106.417 178.258Z" fill-rule="evenodd"/><text fill="#000000" fill-opacity="0" font-family="Arial,Arial_MSFontService,sans-serif" font-size="8.76753" x="101.942" y="185.93">L</text><path d="M96.3755 186.171 97.3444 182.199 95.3667 182.207ZM97.0427 187.564 95.4349 187.571 93.0754 178.915 94.5278 178.909 95.0796 181.078 97.6202 181.069 98.1503 178.896 99.5182 178.89Z" fill-rule="evenodd"/><text fill="#000000" fill-opacity="0" font-family="Arial,Arial_MSFontService,sans-serif" font-size="8.68027" x="93.0754" y="186.486">A</text><path d="M91.987 187.523 90.302 187.397 87.9276 180.956 87.4611 187.184 86.2647 187.095 86.9118 178.454 88.2473 178.554 90.9196 185.712 91.4377 178.793 92.634 178.883Z" fill-rule="evenodd"/><text fill="#000000" fill-opacity="0" font-family="Arial,Arial_MSFontService,sans-serif" font-size="9.06886" x="86.2647" y="186.39">N</text><path d="M83.1267 185.503 84.1311 179.216 83.5406 179.122C82.7156 178.99 82.0712 179.18 81.6074 179.69 81.1436 180.201 80.8356 180.933 80.6834 181.886 80.3482 183.984 80.9659 185.158 82.5362 185.409ZM84.3621 186.864 82.4357 186.556C81.5028 186.407 80.7835 186.123 80.2778 185.704 79.772 185.284 79.428 184.726 79.2456 184.028 79.0632 183.331 79.0354 182.585 79.1622 181.791 79.2957 180.955 79.5434 180.231 79.9051 179.618 80.2668 179.005 80.7444 178.54 81.3376 178.224 81.9309 177.907 82.717 177.827 83.6959 177.983L85.7289 178.308Z" fill-rule="evenodd"/><text fill="#000000" fill-opacity="0" font-family="Arial,Arial_MSFontService,sans-serif" font-size="8.9584" x="79.0842" y="185.744">D</text><path d="M70.7813 184.3 73.2954 179.942 70.9563 179.269ZM71.089 186.177 69.1873 185.63 69.3843 174.59 71.1022 175.084 71.0063 177.837 74.0112 178.701 75.3869 176.317 77.0048 176.782Z" fill-rule="evenodd"/><text fill="#000000" fill-opacity="0" font-family="Arial,Arial_MSFontService,sans-serif" font-size="11.5871" x="69.1873" y="184.729">A</text><path d="M65.8706 182.47 61.2218 180.729 61.6247 179.653 64.9299 180.891 65.798 178.573 63.2061 177.602 63.6112 176.52 66.2031 177.491 67.1535 174.952 63.7947 173.695 64.2065 172.595 68.9087 174.356Z" fill-rule="evenodd"/><text fill="#000000" fill-opacity="0" font-family="Arial,Arial_MSFontService,sans-serif" font-size="9.875" x="61.2218" y="181.236">E</text><path d="M59.19 178.613 60.3685 176.046 59.3704 175.587C58.9243 175.383 58.54 175.355 58.2174 175.505 57.8948 175.655 57.6426 175.928 57.4607 176.324 57.0829 177.147 57.3228 177.756 58.1804 178.149ZM60.0303 180.221 57.6593 179.132C56.8017 178.739 56.2582 178.254 56.0288 177.678 55.7995 177.103 55.8516 176.452 56.1853 175.725 56.6302 174.756 57.3473 174.254 58.3364 174.219L58.4763 169.973 59.8903 170.623 59.6048 174.473 60.8319 175.036 62.3414 171.748 63.6452 172.346Z" fill-rule="evenodd"/><text fill="#000000" fill-opacity="0" font-family="Arial,Arial_MSFontService,sans-serif" font-size="10.2473" x="55.8887" y="178.94">R</text><path d="M51.6181 174.916C52.1387 175.208 52.6473 175.153 53.1437 174.751 53.6402 174.349 54.1388 173.701 54.6395 172.807 55.132 171.927 55.4236 171.168 55.5143 170.529 55.605 169.891 55.3808 169.421 54.8417 169.119 54.3358 168.836 53.8354 168.889 53.3404 169.28 52.8454 169.67 52.3424 170.322 51.8314 171.235 51.3286 172.133 51.0371 172.898 50.9571 173.531 50.8771 174.163 51.0975 174.625 51.6181 174.916ZM51.0334 175.935C50.1583 175.445 49.6726 174.74 49.5763 173.821 49.48 172.901 49.7936 171.795 50.5171 170.503 51.2406 169.21 52.0181 168.363 52.8497 167.96 53.6813 167.558 54.5365 167.602 55.4153 168.094 56.2978 168.588 56.7891 169.296 56.8891 170.218 56.989 171.139 56.6762 172.248 55.9507 173.544 55.2313 174.829 54.4535 175.673 53.6172 176.076 52.7809 176.478 51.9196 176.431 51.0334 175.935Z" fill-rule="evenodd"/><text fill="#000000" fill-opacity="0" font-family="Arial,Arial_MSFontService,sans-serif" font-size="8.65729" x="49.5593" y="175.264">O</text><path d="M44.8755 172.153C43.7045 171.369 43.3457 170.288 43.799 168.911L45.0537 169.239C44.9178 169.701 44.8865 170.088 44.9598 170.401 45.0332 170.713 45.2387 170.983 45.5763 171.209 45.8892 171.418 46.193 171.488 46.4875 171.417 46.782 171.346 47.0095 171.19 47.1701 170.95 47.3472 170.686 47.3924 170.411 47.3058 170.126 47.2193 169.84 46.9624 169.397 46.5351 168.795 46.1711 168.282 45.9137 167.852 45.763 167.507 45.6122 167.161 45.5498 166.792 45.5758 166.4 45.6018 166.007 45.7396 165.625 45.9891 165.252 46.394 164.647 46.9525 164.275 47.6647 164.135 48.3768 163.996 49.1179 164.184 49.888 164.7 51.2172 165.589 51.5905 166.812 51.0077 168.367L49.7409 167.955C50.1478 166.944 49.9591 166.176 49.1749 165.651 48.7916 165.394 48.4341 165.299 48.1024 165.364 47.7707 165.43 47.5072 165.609 47.3118 165.901 47.1682 166.115 47.1038 166.36 47.1185 166.634 47.1332 166.909 47.3437 167.333 47.7498 167.905 48.1806 168.509 48.4728 168.972 48.6265 169.294 48.7803 169.616 48.8479 169.984 48.8295 170.4 48.8111 170.815 48.676 171.211 48.4241 171.587 48.0403 172.161 47.5183 172.509 46.8578 172.632 46.1974 172.755 45.5366 172.595 44.8755 172.153Z" fill-rule="evenodd"/><text fill="#000000" fill-opacity="0" font-family="Arial,Arial_MSFontService,sans-serif" font-size="8.58127" x="43.6092" y="171.6">S</text><path d="M40.912 167.751 42.7707 165.369 42.2102 164.932C41.7097 164.541 41.2907 164.364 40.953 164.402 40.6154 164.439 40.2826 164.667 39.9546 165.088 39.7099 165.401 39.5748 165.705 39.5493 165.999 39.5238 166.293 39.5694 166.522 39.686 166.686 39.8027 166.849 40.0245 167.059 40.3515 167.314ZM41.3596 169.509 39.6681 168.189C39.1276 167.768 38.7286 167.375 38.471 167.01 38.2135 166.645 38.1056 166.199 38.1474 165.67 38.1892 165.142 38.4015 164.633 38.7842 164.142 39.1356 163.692 39.531 163.378 39.9703 163.2 40.4097 163.022 40.843 162.984 41.2702 163.087 41.6974 163.19 42.238 163.496 42.8919 164.006L43.4774 164.463 45.5587 161.796 46.6897 162.678Z" fill-rule="evenodd"/><text fill="#000000" fill-opacity="0" font-family="Arial,Arial_MSFontService,sans-serif" font-size="7.71362" x="38.1386" y="168.545">P</text><path d="M35.6081 162.96 38.9959 160.673 37.5271 159.349ZM35.1645 164.441 33.9705 163.364 38.0453 155.371 39.124 156.344 38.0738 158.32 39.9605 160.022 41.8142 158.77 42.8301 159.686Z" fill-rule="evenodd"/><text fill="#000000" fill-opacity="0" font-family="Arial,Arial_MSFontService,sans-serif" font-size="9.06935" x="33.9705" y="163.307">A</text><path d="M29.4328 159.104C28.3363 157.953 28.407 156.598 29.645 155.039L30.7071 155.868C29.8565 156.877 29.7167 157.681 30.2877 158.28 31.0511 159.081 32.2584 158.695 33.9095 157.121 35.4474 155.656 35.8346 154.522 35.0712 153.721 34.7653 153.4 34.4202 153.273 34.0358 153.339 33.6514 153.405 33.2065 153.614 32.7013 153.967L31.9237 152.884C33.5042 151.752 34.853 151.772 35.9699 152.944 36.6961 153.706 36.9445 154.552 36.7152 155.483 36.4859 156.414 35.8811 157.347 34.9008 158.281 33.8439 159.288 32.8456 159.863 31.9057 160.005 30.9658 160.148 30.1415 159.847 29.4328 159.104Z" fill-rule="evenodd"/><text fill="#000000" fill-opacity="0" font-family="Arial,Arial_MSFontService,sans-serif" font-size="7.99011" x="28.6602" y="159.041">C</text><path d="M26.6343 155.802 23.483 151.967 24.3707 151.237 26.6113 153.964 28.524 152.392 26.767 150.254 27.6596 149.521 29.4166 151.659 31.5108 149.938 29.234 147.167 30.1413 146.422 33.3289 150.301Z" fill-rule="evenodd"/><text fill="#000000" fill-opacity="0" font-family="Arial,Arial_MSFontService,sans-serif" font-size="9.38008" x="23.483" y="154.629">E</text><path d="M19.0789 149.312 15.746 144.192 16.9312 143.42 19.3008 147.061 21.8544 145.399 19.9962 142.544 21.1878 141.768 23.046 144.623 25.8418 142.803 23.4339 139.104 24.6452 138.315 28.0163 143.495Z" fill-rule="evenodd"/><text fill="#000000" fill-opacity="0" font-family="Arial,Arial_MSFontService,sans-serif" font-size="10.9967" x="15.746" y="147.938">E</text><path d="M16.7227 141.868 15.9223 140.38 20.0734 134.912 14.5727 137.871 14.0043 136.814 21.635 132.71 22.2694 133.889 17.6749 139.993 23.785 136.707 24.3533 137.763Z" fill-rule="evenodd"/><text fill="#000000" fill-opacity="0" font-family="Arial,Arial_MSFontService,sans-serif" font-size="9.15817" x="14.0043" y="140.723">N</text><path d="M11.8348 132.411C11.2131 130.985 11.6484 129.781 13.1405 128.798L13.9547 129.856C13.3327 130.293 12.9724 130.674 12.8736 130.998 12.7748 131.322 12.7954 131.644 12.9355 131.966 13.3997 133.03 14.6384 133.124 16.6517 132.246 18.6767 131.364 19.4516 130.378 18.9766 129.288 18.5825 128.384 17.6929 128.233 16.3081 128.837L16.927 130.257 15.8737 130.716 14.7171 128.063 18.8485 126.262 19.1543 126.963 18.2241 127.577C19.1289 127.662 19.7711 128.14 20.1508 129.011 20.5372 129.897 20.4795 130.747 19.9776 131.56 19.4757 132.373 18.6079 133.049 17.3743 133.586 16.0748 134.153 14.9381 134.354 13.9643 134.191 12.9906 134.027 12.2807 133.434 11.8348 132.411Z" fill-rule="evenodd"/><text fill="#000000" fill-opacity="0" font-family="Arial,Arial_MSFontService,sans-serif" font-size="7.98419" x="11.5605" y="133.248">G</text><path d="M10.3069 128.214 9.81147 126.867 17.9429 123.875 18.4383 125.221Z" fill-rule="evenodd"/><text fill="#000000" fill-opacity="0" font-family="Arial,Arial_MSFontService,sans-serif" font-size="4.33865" x="9.81147" y="127.671">I</text><path d="M9.1752 125.156 8.68545 123.539 13.8377 119.002 7.85971 120.813 7.51199 119.664 15.8046 117.153 16.1928 118.435 10.4799 123.508 17.1201 121.497 17.4678 122.645Z" fill-rule="evenodd"/><text fill="#000000" fill-opacity="0" font-family="Arial,Arial_MSFontService,sans-serif" font-size="8.00334" x="7.51199" y="124.156">N</text><path d="M7.07167 117.861 5.99271 113.016 7.11417 112.766 7.88131 116.211 10.2977 115.673 9.69613 112.972 10.8238 112.721 11.4254 115.422 14.071 114.833 13.2914 111.332 14.4377 111.077 15.5291 115.978Z" fill-rule="evenodd"/><text fill="#000000" fill-opacity="0" font-family="Arial,Arial_MSFontService,sans-serif" font-size="6.78432" x="5.99271" y="117.013">E</text><path d="M5.79287 111.806 5.04358 106.899 6.17934 106.726 6.71209 110.215 9.15931 109.841 8.74154 107.105 9.88358 106.931 10.3013 109.667 12.9807 109.257 12.4394 105.712 13.6002 105.535 14.3581 110.498Z" fill-rule="evenodd"/><text fill="#000000" fill-opacity="0" font-family="Arial,Arial_MSFontService,sans-serif" font-size="6.27138" x="5.04358" y="111.022">E</text><path d="M5.90744 104.15 8.72353 103.93 8.63783 102.835C8.59951 102.346 8.43635 101.996 8.14835 101.788 7.86034 101.579 7.49907 101.492 7.06452 101.526 6.16169 101.596 5.74709 102.102 5.82074 103.043ZM4.91195 105.667 4.70834 103.066C4.63469 102.125 4.79341 101.415 5.18451 100.934 5.5756 100.454 6.16983 100.182 6.9672 100.12 8.03035 100.036 8.81793 100.418 9.32994 101.265L13.1062 99.3207 13.2276 100.872 9.7256 102.497 9.83098 103.843 13.4381 103.561 13.5501 104.991Z" fill-rule="evenodd"/><text fill="#000000" fill-opacity="0" font-family="Arial,Arial_MSFontService,sans-serif" font-size="6.34637" x="4.69083" y="104.874">R</text><path d="M4.46566 98.5405 4.4359 97.1062 13.0986 96.9265 13.1283 98.3607Z" fill-rule="evenodd"/><text fill="#000000" fill-opacity="0" font-family="Arial,Arial_MSFontService,sans-serif" font-size="1.61401" x="4.4359" y="98.3387">I</text><path d="M4.39162 95.297 4.45636 93.6085 10.807 91.001 4.5655 90.7617 4.61147 89.5629 13.2697 89.8948 13.2183 91.2331 6.16288 94.1643 13.0958 94.4301 13.0498 95.6289Z" fill-rule="evenodd"/><text fill="#000000" fill-opacity="0" font-family="Arial,Arial_MSFontService,sans-serif" font-size="6.06604" x="4.39162" y="94.8707">N</text><path d="M4.98124 84.6489C5.17066 83.1048 6.15755 82.2888 7.94193 82.2011L8.10559 83.5258C7.34782 83.586 6.84405 83.7306 6.59426 83.9595 6.34449 84.1884 6.19826 84.4769 6.15557 84.8248 6.01415 85.9777 7.03342 86.6878 9.21336 86.9552 11.4059 87.2242 12.5746 86.7687 12.7193 85.5888 12.8394 84.6098 12.1497 84.0282 10.6502 83.8443L10.4616 85.3816 9.32124 85.2417 9.67366 82.3687 14.147 82.9175 14.0538 83.6771 12.9405 83.7333C13.6767 84.266 13.9869 85.004 13.8713 85.9471 13.7535 86.9069 13.2719 87.6094 12.4264 88.0545 11.5809 88.4997 10.4903 88.6403 9.15466 88.4765 7.74756 88.3039 6.66625 87.8997 5.91072 87.264 5.15519 86.6283 4.84536 85.7566 4.98124 84.6489Z" fill-rule="evenodd"/><text fill="#000000" fill-opacity="0" font-family="Arial,Arial_MSFontService,sans-serif" font-size="6.34152" x="4.95017" y="87.7499">G</text><path d="M160.811 56.5393C159.59 61.0958 156.76 64.4535 152.322 66.613 148.103 68.6453 143.693 69.0451 139.093 67.8126 134.45 66.5685 130.788 64.0058 128.107 60.1248 125.343 56.0354 124.571 51.7125 125.792 47.156 126.199 45.6372 126.721 44.3819 127.359 43.3901 118.049 40.9886 108.319 43.5438 98.1665 51.0558 88.6314 58.1749 82.5847 66.5077 80.0267 76.0545 75.2245 93.9764 84.5182 106.071 107.908 112.338L140.648 121.111C137.443 127.694 131.24 129.752 122.041 127.287L98.0222 120.852C83.0512 116.84 71.4822 111.415 63.3152 104.575 52.1185 95.1569 48.3932 83.7173 52.1396 70.2565 54.2495 62.7293 58.5943 55.8007 65.1739 49.4709 74.1466 40.8059 85.1415 35.0081 98.1589 32.0777 110.782 29.2278 123.321 29.4712 135.776 32.8083L148.794 36.2965C153.004 37.4245 156.338 40.039 158.796 44.1395 161.256 48.2403 161.927 52.3735 160.811 56.5393Z" fill-rule="evenodd"/><path d="M31.7729 135.457C32.9938 130.901 35.8238 127.543 40.2621 125.384 44.4807 123.351 48.8907 122.952 53.4902 124.184 58.1334 125.428 61.7955 127.991 64.4764 131.872 67.2409 135.961 68.0127 140.284 66.7918 144.841 66.3849 146.36 65.8625 147.615 65.2246 148.607 74.5342 151.008 84.2651 148.453 94.4172 140.941 103.952 133.822 109.999 125.489 112.557 115.942 117.359 98.0203 108.065 85.9259 84.6759 79.6587L51.9353 70.8859C55.1406 64.3031 61.3432 62.2443 70.5428 64.7093L94.5615 71.1451C109.532 75.1566 121.101 80.582 129.269 87.4213 140.465 96.8398 144.19 108.279 140.444 121.74 138.334 129.268 133.989 136.196 127.41 142.526 118.437 151.191 107.442 156.989 94.4248 159.919 81.8012 162.769 69.2623 162.525 56.8081 159.188L43.7898 155.7C39.5801 154.572 36.2461 151.958 33.7875 147.857 31.3279 143.756 30.6567 139.623 31.7729 135.457Z" fill="#FE5C00" fill-rule="evenodd"/></g></svg>